<svg width="264" height="216" viewBox="0 0 264 216" fill="none" xmlns="http://www.w3.org/2000/svg">
<g filter="url(#filter0_d_69_806)">
<rect x="48" y="28" width="168" height="120" rx="8" fill="white"/>
<path d="M95.0744 72H95.9463C98.973 72.0658 101.95 73.2831 104.089 75.438C103.299 76.244 102.493 77.0171 101.72 77.8231C100.519 76.7375 99.0717 75.8985 97.4925 75.6024C95.1567 75.109 92.6399 75.5531 90.6824 76.8855C88.544 78.2837 87.0964 80.6525 86.7839 83.1857C86.4384 85.686 87.1458 88.3179 88.7743 90.259C90.337 92.1507 92.7222 93.3351 95.1896 93.4173C97.4925 93.5489 99.8942 92.8416 101.572 91.2295C102.888 90.0945 103.497 88.3673 103.694 86.6894C100.963 86.6894 98.2327 86.7059 95.5021 86.6894V83.3008H107C107.593 86.9362 106.737 91.0321 103.974 93.6311C102.131 95.4735 99.5816 96.5592 96.9826 96.773C94.4658 97.0198 91.8668 96.5427 89.6296 95.3254C86.9484 93.8943 84.8099 91.4763 83.7572 88.6305C82.7702 86.015 82.7537 83.0541 83.6749 80.4222C84.5138 78.0205 86.1259 75.8985 88.1985 74.4181C90.1889 72.9541 92.607 72.148 95.0744 72Z" fill="#3780FF"/>
<path d="M161.037 72.855H164.557V96.3449C163.389 96.3449 162.205 96.3614 161.037 96.3285C161.054 88.5149 161.037 80.685 161.037 72.855Z" fill="#38B137"/>
<path d="M114.83 80.9975C117.002 80.5862 119.354 81.0468 121.147 82.3463C122.776 83.4978 123.911 85.3073 124.256 87.2812C124.7 89.5677 124.141 92.068 122.66 93.8775C121.065 95.9008 118.449 96.9865 115.9 96.822C113.564 96.6904 111.294 95.5224 109.912 93.6143C108.349 91.5087 107.971 88.6136 108.826 86.1462C109.682 83.4978 112.1 81.4745 114.83 80.9975ZM115.324 84.1229C114.436 84.3532 113.613 84.8631 113.021 85.5869C111.425 87.4951 111.524 90.604 113.284 92.3806C114.288 93.4004 115.801 93.8775 117.199 93.5978C118.499 93.3676 119.634 92.4957 120.259 91.3443C121.344 89.3868 121.032 86.689 119.37 85.1592C118.301 84.1722 116.739 83.761 115.324 84.1229Z" fill="#FA3913"/>
<path d="M132.267 80.9972C134.751 80.5202 137.465 81.2111 139.324 82.9547C142.35 85.6689 142.679 90.7518 140.097 93.8772C138.534 95.8512 136.001 96.9368 133.501 96.8217C131.115 96.7559 128.763 95.5715 127.348 93.614C125.753 91.4591 125.407 88.4982 126.312 85.9814C127.217 83.4153 129.586 81.4578 132.267 80.9972ZM132.76 84.1226C131.872 84.3529 131.05 84.8629 130.457 85.5702C128.878 87.4454 128.944 90.5051 130.638 92.2981C131.642 93.3673 133.204 93.8937 134.652 93.5976C135.935 93.3508 137.087 92.4955 137.712 91.344C138.781 89.37 138.468 86.6723 136.79 85.1425C135.721 84.1555 134.159 83.7607 132.76 84.1226Z" fill="#FCBD06"/>
<path d="M147.055 81.9513C148.947 80.767 151.464 80.438 153.503 81.4578C154.145 81.7375 154.671 82.2145 155.181 82.6916C155.198 82.2474 155.181 81.7868 155.198 81.3262C156.3 81.3427 157.402 81.3262 158.521 81.3427V95.8512C158.504 98.039 157.945 100.358 156.366 101.954C154.638 103.714 151.99 104.257 149.605 103.895C147.055 103.517 144.835 101.658 143.848 99.3056C144.835 98.8286 145.871 98.4502 146.891 98.0061C147.467 99.355 148.634 100.506 150.098 100.77C151.562 101.033 153.257 100.671 154.211 99.4537C155.231 98.2035 155.231 96.4928 155.181 94.9629C154.425 95.7032 153.553 96.3612 152.5 96.6079C150.214 97.2494 147.697 96.4599 145.937 94.9136C144.16 93.3673 143.107 90.9821 143.206 88.6134C143.255 85.9321 144.769 83.3495 147.055 81.9513ZM150.46 84.0569C149.457 84.2214 148.519 84.7807 147.878 85.5538C146.331 87.3961 146.331 90.3406 147.894 92.1501C148.782 93.2193 150.214 93.8115 151.595 93.6634C152.895 93.5318 154.096 92.7093 154.737 91.5743C155.823 89.6497 155.642 87.0342 154.178 85.3564C153.273 84.3201 151.826 83.8101 150.46 84.0569Z" fill="#3780FF"/>
<path d="M168.785 82.7903C170.759 80.9479 173.802 80.3228 176.335 81.2934C178.737 82.1981 180.267 84.4846 181.04 86.8369C177.471 88.3173 173.917 89.7813 170.348 91.2618C170.841 92.1994 171.598 93.0548 172.618 93.4002C174.049 93.9102 175.76 93.7292 176.961 92.7751C177.438 92.4133 177.816 91.9362 178.178 91.4756C179.083 92.0843 179.987 92.6764 180.892 93.2851C179.609 95.2097 177.454 96.5585 175.135 96.7724C172.569 97.0849 169.838 96.098 168.176 94.0911C165.446 90.9328 165.709 85.636 168.785 82.7903ZM170.545 85.8334C169.986 86.6395 169.756 87.6264 169.772 88.597C172.157 87.61 174.542 86.623 176.928 85.6196C176.533 84.6984 175.579 84.1391 174.608 83.9911C173.046 83.7114 171.417 84.5504 170.545 85.8334Z" fill="#FA3913"/>
</g>
<defs>
<filter id="filter0_d_69_806" x="0" y="0" width="264" height="216" filterUnits="userSpaceOnUse" color-interpolation-filters="sRGB">
<feFlood flood-opacity="0" result="BackgroundImageFix"/>
<feColorMatrix in="SourceAlpha" type="matrix" values="0 0 0 0 0 0 0 0 0 0 0 0 0 0 0 0 0 0 127 0" result="hardAlpha"/>
<feOffset dy="20"/>
<feGaussianBlur stdDeviation="24"/>
<feColorMatrix type="matrix" values="0 0 0 0 0.0392157 0 0 0 0 0.0980392 0 0 0 0 0.192157 0 0 0 0.09 0"/>
<feBlend mode="normal" in2="BackgroundImageFix" result="effect1_dropShadow_69_806"/>
<feBlend mode="normal" in="SourceGraphic" in2="effect1_dropShadow_69_806" result="shape"/>
</filter>
</defs>
</svg>
