<svg width="168" height="120" viewBox="0 0 168 120" fill="none" xmlns="http://www.w3.org/2000/svg">
<rect width="168" height="120" rx="8" fill="white"/>
<rect width="168" height="120" rx="8" fill="#DFE3EB" fill-opacity="0.3"/>
<path d="M44.6297 72.9761L36.9162 72.835C34.4187 72.7859 31.915 72.8841 29.4666 72.3748C25.7418 71.6138 25.4779 67.8829 25.2018 64.7533C24.8213 60.3535 24.9686 55.8739 25.6866 51.5109C26.0916 49.0625 27.687 47.602 30.1539 47.4425C38.481 46.8657 46.8633 46.9332 55.1721 47.2032C56.0496 47.2277 56.9332 47.3627 57.7984 47.5161C62.0694 48.2648 62.1737 52.4928 62.4498 56.0519C62.726 59.6478 62.6094 63.2622 62.0817 66.8336C61.6582 69.7913 60.8482 72.2704 57.4303 72.5098C53.147 72.8227 48.962 73.0743 44.6665 72.9945C44.6665 72.9761 44.642 72.9761 44.6297 72.9761ZM40.0949 65.4897C43.3226 63.6365 46.489 61.814 49.6984 59.9731C46.4645 58.1199 43.3042 56.2974 40.0949 54.4564V65.4897Z" fill="#FF0000"/>
<path d="M124.52 69.6125C124.373 70.2139 124.244 70.6864 124.115 71.1896H121.096V47.9019H124.618V56.4928C124.802 56.2597 124.894 56.1615 124.974 56.0572C125.575 55.2287 126.355 54.6887 127.361 54.4801C128.963 54.1671 130.331 54.8728 130.816 56.4131C131.129 57.3703 131.331 58.3951 131.356 59.3954C131.405 61.9665 131.368 64.5315 131.276 67.1027C131.239 67.8882 131 68.692 130.699 69.4284C129.711 71.8584 126.484 72.2266 124.882 70.1218C124.784 69.993 124.692 69.8518 124.52 69.6125ZM124.692 63.2061V67.4648C124.692 68.1582 125.06 68.5816 125.753 68.7411C126.435 68.9007 126.987 68.6368 127.263 68.0048C127.38 67.7409 127.496 67.4648 127.502 67.1886C127.57 64.5868 127.631 61.9849 127.65 59.377C127.65 58.8922 127.533 58.389 127.386 57.9165C127.11 57.0635 126.349 56.8119 125.6 57.309C125.035 57.6894 124.692 58.2294 124.692 58.9474V63.2061ZM115.119 54.8115H118.807V71.2018H115.929C115.825 70.5821 115.72 69.9439 115.598 69.1952C115.401 69.4836 115.285 69.6677 115.162 69.8518C114.205 71.2325 112.849 71.705 111.247 71.4534C109.879 71.2325 109.056 70.177 108.872 68.4466C108.817 67.9311 108.792 67.4095 108.792 66.8941C108.78 63.0588 108.792 59.2113 108.792 55.376V54.7992H112.523V55.4681C112.523 59.1745 112.511 62.8747 112.536 66.5811C112.536 67.1088 112.591 67.655 112.683 68.1827C112.787 68.7227 113.18 68.9191 113.708 68.8823C114.561 68.8148 115.15 68.1827 115.15 67.3359V55.5356C115.119 55.2962 115.119 55.0753 115.119 54.8115ZM89.7266 54.7992H93.433V55.4926C93.433 59.1806 93.4207 62.8624 93.4452 66.5382C93.4452 67.0659 93.4943 67.612 93.6048 68.1275C93.7459 68.735 94.1018 68.9314 94.7093 68.8516C95.55 68.735 96.0593 68.152 96.0655 67.2991V55.5601V54.8237H99.7535V71.2018H96.8878C96.7834 70.5943 96.6791 69.9684 96.5441 69.1768C96.36 69.453 96.2557 69.6125 96.1514 69.7782C95.1941 71.1834 93.8502 71.6989 92.2118 71.4473C90.8986 71.2509 90.0947 70.2814 89.8493 68.692C89.7818 68.195 89.7327 67.7041 89.7327 67.207C89.7204 63.2245 89.7204 59.2235 89.7204 55.241L89.7266 54.7992ZM87.8243 63.5497C87.812 64.102 87.7752 64.6543 87.7445 65.2066C87.6034 66.8634 87.5359 69.2136 86.1981 70.4225C85.3452 71.1834 84.2652 71.4596 83.1483 71.4964C82.6513 71.5087 82.1481 71.5087 81.651 71.4412C79.3008 71.0852 78.2085 70.0482 77.8158 67.4648C77.3678 64.4825 77.331 61.4511 77.8649 58.4688C78.4172 55.3821 80.3194 54.2899 83.2772 54.4924C86.0386 54.6887 87.272 56.499 87.5972 59.0763C87.7752 60.5551 87.8611 62.0524 87.8243 63.5497ZM84.0688 62.9852C84.0688 61.9358 84.0933 60.8804 84.0565 59.8311C84.032 59.2235 83.9522 58.6099 83.8233 58.0085C83.6761 57.3151 83.2342 56.9838 82.682 56.996C82.142 57.0083 81.7615 57.3397 81.5651 57.984C81.4976 58.2233 81.424 58.4688 81.424 58.7081C81.424 60.3526 81.4117 62.0033 81.3994 63.6479C81.3872 65.182 81.1908 66.7897 81.6756 68.2564C81.8229 68.7043 82.2033 68.9498 82.7004 68.9498C83.1851 68.9498 83.5042 68.7104 83.6822 68.2809C83.8233 67.9495 83.9461 67.5875 83.9461 67.2316C83.989 65.8202 84.0688 64.4027 84.0688 62.9852ZM72.4035 59.8986C72.7287 58.3092 73.0355 56.7567 73.373 55.1981C73.7964 53.216 74.2689 51.2339 74.6862 49.2457C74.7905 48.761 74.9869 48.6444 75.4471 48.6566C76.4351 48.6935 77.4415 48.6689 78.4969 48.6689C78.1533 49.933 77.8158 51.1357 77.4844 52.3201C76.4351 56.0387 75.3858 59.7697 74.3487 63.5006C74.2689 63.789 74.2321 64.102 74.2321 64.4088C74.2198 66.4461 74.2321 68.4773 74.2321 70.5146V71.1773H70.63C70.6178 70.9932 70.5932 70.8091 70.5932 70.625C70.5932 69.4714 70.5012 68.3116 70.6055 67.1702C70.8694 64.4272 69.998 61.9052 69.2923 59.3524C68.3596 55.9774 67.4146 52.5901 66.4818 49.215C66.4327 49.0555 66.4143 48.8837 66.3652 48.6873H70.0409C70.8141 52.4121 71.5935 56.1369 72.4035 59.8986ZM142.88 64.1756H136.67C136.738 65.4213 136.762 66.6057 136.891 67.7777C136.983 68.5939 137.431 68.9436 138.137 68.9498C138.873 68.962 139.303 68.5939 139.474 67.7838C139.53 67.52 139.567 67.2561 139.591 66.9861C139.616 66.7468 139.628 66.4891 139.646 66.1454C140.696 66.2007 141.72 66.262 142.733 66.305C143.322 68.0539 142.26 70.2998 140.475 70.9932C139.069 71.5455 137.627 71.5455 136.191 71.1221C135.13 70.8091 134.338 70.1341 133.982 69.097C133.651 68.1275 133.338 67.115 133.271 66.1025C133.086 63.6049 133.019 61.0829 133.399 58.5792C133.467 58.1619 133.584 57.7631 133.712 57.3581C134.228 55.689 135.351 54.6642 137.087 54.4924C138.032 54.4003 139.008 54.4371 139.941 54.5967C141.45 54.8606 142.254 55.9467 142.604 57.3703C142.764 58.0392 142.88 58.7265 142.905 59.4076C142.911 60.9724 142.88 62.5249 142.88 64.1756ZM139.352 62.0218C139.352 60.7883 139.364 59.6285 139.339 58.4626C139.339 58.1865 139.235 57.8981 139.131 57.6342C138.922 57.1188 138.486 56.9776 137.965 56.9776C137.443 56.9776 137.112 57.2415 136.983 57.714C136.59 59.1315 136.719 60.5797 136.731 62.034C137.67 62.0218 138.523 62.0218 139.352 62.0218Z" fill="#282828"/>
<path d="M102.601 51.6758H98.9497V48.718H109.848V51.6574H106.221V71.1773H102.607L102.601 51.6758Z" fill="#282828"/>
</svg>
